<svg version="1.0" xmlns="http://www.w3.org/2000/svg"
 width="185.000000pt" height="41.000000pt" viewBox="0 0 185.000000 41.000000"
 preserveAspectRatio="xMidYMid meet">
<g transform="translate(0.000000,41.000000) scale(0.100000,-0.100000)"
fill="#000000" stroke="none">
<path d="M1003 330 c-10 -26 -14 -29 -46 -23 -29 4 -40 1 -59 -18 -29 -29 -83
-152 -75 -172 4 -11 24 -14 83 -13 l77 1 53 123 c30 68 54 125 54 128 0 2 -17
4 -38 4 -33 0 -39 -4 -49 -30z"/>
<path d="M1547 328 c-15 -17 -24 -35 -21 -39 2 -4 -7 -35 -21 -68 -36 -86 -35
-91 25 -91 50 0 59 7 39 27 -15 15 26 111 60 141 21 18 23 24 12 31 -7 5 -10
14 -7 20 5 7 -4 11 -27 11 -26 0 -40 -7 -60 -32z"/>
<path d="M1375 315 c-22 -8 -41 -15 -43 -15 -9 0 -62 -137 -60 -154 2 -17 11
-22 50 -24 29 -2 59 3 77 13 34 17 71 75 49 75 -31 0 -58 -14 -63 -31 -6 -19
-35 -27 -35 -10 0 20 51 121 61 121 6 0 8 -8 4 -20 -6 -17 -2 -20 28 -20 29 0
36 4 41 26 4 15 3 31 -1 35 -17 17 -69 19 -108 4z"/>
<path d="M1128 313 c-19 -5 -92 -168 -84 -188 3 -9 28 -13 83 -13 l79 -1 37
87 c56 135 55 124 12 120 -38 -3 -39 -5 -74 -85 -19 -46 -41 -83 -48 -83 -8 0
0 28 22 81 19 44 35 83 35 85 0 5 -39 3 -62 -3z"/>
<path d="M626 293 c-4 -4 -30 -7 -58 -8 l-52 0 -43 -99 c-24 -55 -43 -100 -43
-100 0 -1 18 0 39 2 37 4 40 7 65 64 20 46 33 62 56 71 18 7 33 22 40 41 10
30 9 42 -4 29z"/>
<path d="M688 285 c-26 -14 -69 -91 -83 -147 -5 -21 -2 -29 15 -38 29 -16 101
-5 133 20 33 26 83 139 70 159 -14 22 -100 25 -135 6z"/>
<path d="M315 283 c-16 -3 -34 -34 -72 -124 -48 -112 -50 -121 -30 -115 12 3
30 6 39 6 10 0 24 12 31 26 9 17 17 23 21 15 12 -18 53 -13 79 12 29 27 82
150 74 171 -7 18 -39 21 -68 6 -13 -7 -19 -7 -19 0 0 10 -16 11 -55 3z"/>
</g>
</svg>
