<svg id="mini.fw-Page%201" viewBox="0 0 185 41" style="background-color:#ffffff" version="1.1"
	xmlns="http://www.w3.org/2000/svg" xmlns:xlink="http://www.w3.org/1999/xlink" xml:space="preserve"
	x="0px" y="0px" width="185px" height="41px"
>
	<g id="Layer%201">
		<g>
			<path d="M 71 14 L 71 36 L 76 36 L 76 30.9688 C 76.5313 31.6563 77.125 32.1563 77.7813 32.5 C 78.4219 32.8438 79.125 33 79.8906 33 C 80.8438 33 81.6563 32.7969 82.3281 32.375 C 83 31.9688 83.4531 31.4063 83.6719 30.6875 C 83.8906 29.9844 84 28.7969 84 27.125 L 84 19.4063 C 84 17.9531 83.9063 16.9219 83.7344 16.3125 C 83.5625 15.7031 83.125 15.1719 82.4375 14.7031 C 81.75 14.2344 80.9219 14 79.9688 14 C 79.1875 14 78.4688 14.1719 77.8125 14.4844 C 77.1563 14.7969 76.5469 15.2813 76 15.9063 L 76.1719 14 L 71 14 L 71 14 ZM 79 27.6875 C 79 28.7031 78.9219 29.3438 78.7656 29.6094 C 78.6094 29.875 78.2031 30 77.5781 30 C 76.9219 30 76.4844 29.8594 76.2969 29.5781 C 76.0938 29.2969 76 28.5781 76 27.4219 L 76 19.5156 C 76 18.4219 76.0938 17.7188 76.2813 17.4375 C 76.4688 17.1563 76.8906 17 77.5469 17 C 78.2188 17 78.625 17.125 78.7813 17.375 C 78.9219 17.625 79 18.3438 79 19.5156 L 79 27.6875 L 79 27.6875 Z" fill="#ff3919"/>
			<path d="M 87 14 L 87 33 L 92 33 L 92 24.7031 C 92 22.6719 92.0625 21.3594 92.2031 20.7969 C 92.3281 20.2344 92.6875 19.7969 93.2656 19.4844 C 93.8438 19.1719 94.75 19 96 19 L 96 14 C 94.25 14.0938 92.9063 14.9219 92 16.4688 L 92 14 L 87 14 L 87 14 Z" fill="#ff3919"/>
			<path d="M 109.75 17.875 C 109.5781 17.25 109.2656 16.625 108.8125 16.0313 C 108.3438 15.4375 107.7031 14.9375 106.8594 14.5625 C 106.0156 14.1875 105 14 103.8281 14 C 102.4219 14 101.2813 14.2969 100.375 14.875 C 99.4688 15.4531 98.8594 16.2188 98.5156 17.1719 C 98.1719 18.1406 98 19.4688 98 21.1719 L 98 25.875 C 98 27.4375 98.0938 28.5938 98.2813 29.375 C 98.4688 30.1563 98.7813 30.8281 99.2344 31.375 C 99.6719 31.9219 100.2969 32.3281 101.1094 32.5938 C 101.9063 32.875 102.8906 33 104.0469 33 C 105.0781 33 106 32.8438 106.7969 32.5313 C 107.5938 32.2188 108.25 31.7188 108.7656 31.0469 C 109.2656 30.3906 109.6094 29.6719 109.7656 28.8906 C 109.9219 28.125 110 26.9219 110 25.2656 L 110 20.7656 C 110 19.4844 109.9063 18.5156 109.75 17.875 L 109.75 17.875 ZM 105 28.0156 C 105 28.8438 104.9219 29.375 104.7969 29.625 C 104.6719 29.875 104.4063 30 104 30 C 103.5938 30 103.3281 29.875 103.2031 29.5938 C 103.0625 29.3281 103 28.7344 103 27.8281 L 103 19.2188 C 103 18.25 103.0625 17.6406 103.2031 17.3906 C 103.3281 17.1406 103.6094 17 104.0156 17 C 104.4219 17 104.6875 17.1406 104.8125 17.3906 C 104.9375 17.6406 105 18.25 105 19.2188 L 105 28.0156 L 105 28.0156 Z" fill="#ff3919"/>
			<path d="M 121 9 L 121 15.625 C 120.4688 15.0938 119.8906 14.6875 119.2656 14.4063 C 118.6406 14.1406 117.9375 14 117.1875 14 C 116.2031 14 115.3594 14.2344 114.6563 14.6719 C 113.9375 15.125 113.4844 15.6406 113.2969 16.2344 C 113.0938 16.8281 113 17.8125 113 19.2188 L 113 27.7969 C 113 29.1563 113.0938 30.1406 113.2969 30.7344 C 113.4844 31.3281 113.9375 31.8594 114.6406 32.3125 C 115.3281 32.7813 116.1563 33 117.1094 33 C 117.8125 33 118.4844 32.875 119.1406 32.5938 C 119.7969 32.3281 120.4063 31.9219 121 31.3906 L 121 33 L 126 33 L 126 9 L 121 9 L 121 9 ZM 121 27.5938 C 121 28.6563 120.8906 29.3281 120.6719 29.5938 C 120.4531 29.875 120.0469 30 119.4219 30 C 118.8594 30 118.4688 29.8906 118.2813 29.6406 C 118.0938 29.3906 118 28.8906 118 28.1094 L 118 18.7656 C 118 18.0156 118.0938 17.5469 118.2969 17.3281 C 118.5 17.1094 118.8906 17 119.4844 17 C 120.0781 17 120.4844 17.125 120.6875 17.3594 C 120.8906 17.6094 121 18.0781 121 18.7656 L 121 27.5938 L 121 27.5938 Z" fill="#ff3919"/>
			<path d="M 137 14 L 137 26.7969 C 137 28.3594 136.9219 29.2969 136.7813 29.5781 C 136.6406 29.8594 136.2031 30 135.4844 30 C 134.7969 30 134.3906 29.875 134.2344 29.5938 C 134.0781 29.3125 134 28.4375 134 26.9531 L 134 14 L 129 14 L 129 26.5938 C 129 28.1875 129.0313 29.2656 129.1094 29.7969 C 129.1719 30.3438 129.3594 30.8594 129.6406 31.3594 C 129.9219 31.8594 130.375 32.25 130.9844 32.5469 C 131.5938 32.8594 132.3594 33 133.2813 33 C 134.0938 33 134.7969 32.8594 135.4219 32.5469 C 136.0469 32.25 136.5625 31.7969 137 31.1875 L 136.8281 33 L 142 33 L 142 14 L 137 14 L 137 14 Z" fill="#ff3919"/>
			<path d="M 156.5 17.1406 C 156.1719 16.2344 155.5156 15.4844 154.5313 14.8906 C 153.5313 14.2969 152.3438 14 150.9531 14 C 149.5469 14 148.3438 14.3125 147.375 14.9375 C 146.3906 15.5625 145.75 16.2656 145.4531 17.0469 C 145.1406 17.8438 145 19.0156 145 20.5781 L 145 25.7813 C 145 27.5781 145.1719 28.9688 145.5469 29.9375 C 145.9063 30.9063 146.5313 31.6719 147.4219 32.2031 C 148.2969 32.7344 149.5 33 151.0156 33 C 152.2031 33 153.1875 32.8125 154 32.4063 C 154.7969 32.0156 155.4531 31.4219 155.9531 30.6406 C 156.4531 29.8594 156.75 29.1094 156.8438 28.3594 C 156.9375 27.6094 156.9844 26.5 157 25 L 153 25 L 153 27.3594 C 153 28.3906 152.8906 29.0781 152.6875 29.4531 C 152.4844 29.8281 152.0938 30 151.5156 30 C 151.0156 30 150.625 29.8438 150.375 29.5 C 150.125 29.1563 150 28.6406 150 27.9531 L 150 18.9688 C 150 18.1406 150.0938 17.6094 150.2969 17.3594 C 150.4844 17.125 150.875 17 151.4688 17 C 152.0469 17 152.4531 17.1406 152.6719 17.3906 C 152.8906 17.6563 153 18.1563 153 18.8906 L 153 21 L 157 21 C 157 19.3438 156.8281 18.0469 156.5 17.1406 L 156.5 17.1406 Z" fill="#ff3919"/>
			<path d="M 160 11 L 160 14 L 159 14 L 159 17 L 160 17 L 160 26.9375 C 160 28.8906 160.0469 30.125 160.1406 30.6563 C 160.2344 31.1875 160.4844 31.6406 160.875 32.0469 C 161.2656 32.4531 161.7188 32.7188 162.25 32.8281 C 162.7656 32.9531 163.625 33 164.8438 33 L 167 33 L 167 30 C 165.9375 30 165.3438 29.9375 165.2031 29.7813 C 165.0625 29.625 165 28.9063 165 27.5938 L 165 17 L 167 17 L 167 14 L 165 14 L 165 11 L 160 11 L 160 11 Z" fill="#ff3919"/>
		</g>
		<image x="6" y="-14" width="51" height="51" xlink:href="logo.svg.images/image1.png"/>
	</g>
</svg>
